<?xml version="1.0" standalone="no"?>
<!DOCTYPE svg PUBLIC "-//W3C//DTD SVG 20010904//EN"
 "http://www.w3.org/TR/2001/REC-SVG-20010904/DTD/svg10.dtd">
<svg version="1.0" xmlns="http://www.w3.org/2000/svg"
 width="82.000000pt" height="101.000000pt" viewBox="0 0 82.000000 101.000000"
 preserveAspectRatio="xMidYMid meet">

<g transform="translate(0.000000,101.000000) scale(0.100000,-0.100000)"
fill="#000000" stroke="none">
<path d="M455 646 c-116 -28 -246 -109 -305 -189 -17 -23 -30 -44 -30 -48 0
-4 23 8 51 26 53 36 119 59 147 52 12 -3 11 -5 -5 -6 -42 -2 -129 -41 -158
-71 -27 -28 -28 -31 -11 -49 35 -39 212 -77 311 -66 91 10 181 35 215 60 28
21 30 24 15 39 -39 38 -110 69 -210 90 -15 3 -14 4 6 5 42 2 125 -27 178 -64
l51 -34 15 29 c19 37 19 112 0 177 -14 47 -18 51 -52 57 -59 9 -163 6 -218 -8z
m-27 -153 c-15 -2 -42 -2 -60 0 -18 2 -6 4 27 4 33 0 48 -2 33 -4z"/>
<path d="M485 165 c-30 -29 -32 -68 -5 -95 22 -22 46 -25 70 -10 19 12 6 24
-28 25 -20 0 -28 6 -30 23 -5 32 15 53 44 46 29 -7 32 11 5 26 -27 14 -29 13
-56 -15z"/>
<path d="M570 100 c0 -27 3 -50 7 -50 4 0 17 12 30 28 l22 27 1 -27 c0 -16 5
-28 10 -28 6 0 10 23 10 50 0 57 -9 62 -39 23 l-20 -28 -1 28 c0 15 -4 27 -10
27 -5 0 -10 -22 -10 -50z"/>
<path d="M660 141 c0 -5 7 -11 15 -15 9 -3 15 -19 15 -41 0 -19 5 -35 10 -35
6 0 10 18 10 40 0 29 4 40 15 40 11 0 15 -11 15 -40 0 -47 11 -50 39 -12 l20
27 1 -27 c0 -16 5 -28 10 -28 6 0 10 23 10 50 0 53 -12 64 -31 28 -12 -22 -12
-22 -20 -2 -6 17 -17 21 -58 23 -28 1 -51 -3 -51 -8z"/>
</g>
</svg>
